Genre:Drama
 Language:English
 IMDb: 
http://www.imdb.com/title/tt1067583/
 Source:DVD-9/IMAGINE&Hive-CM8 Thanks!

 Format : MPEG-4
 Format profile : Base Media
 Codec ID : isom
 File size : 1.15 GiB
 Duration : 1h 55mn
 Overall bit rate : 1 427 Kbps

 Video
 Format profile : High@L4.1
 Format settings, CABAC : Yes
 Format settings, ReFrames : 3 frames
 Codec ID : avc1
 Codec ID/Info : Advanced Video Coding
 Duration : 1h 55mn
 Bit rate mode : Variable
 Bit rate : 1 000 Kbps
 Maximum bit rate : 4 685 Kbps
 Width : 720 pixels
 Height : 304 pixels
 Display aspect ratio : 2.35:1
 Frame rate mode : Constant
 Frame rate : 25.000 fps
 Color space : YUV
 Chroma subsampling : 4:2:0
 Bit depth : 8 bits
 Scan type : Progressive
 Bits/(Pixel*Frame) : 0.183
 Stream size : 810 MiB (69%)
 Writing library : x264

 Audio
 ID : 2
 Format : AAC
 Format/Info : Advanced Audio Codec
 Format version : Version 4
 Format profile : LC
 Format settings, SBR : No
 Codec ID : 40
 Duration : 1h 55mn
 Bit rate mode : Variable
 Bit rate : 444 Kbps
 Maximum bit rate : 497 Kbps
 Channel(s) : 6 channels
 Channel positions : Front: L C R, Side: L R, LFE
 Sampling rate : 48.0 KHz
 Stream size : 367 MiB (31%)


 Plot:
 A veterinary student abandons his studies after his parents are killed and joins a traveling circus as their vet


Greets:

 INK,CRYS,IMAGINE,LKRG,FXG,3Li,FLAWL3SS,TA,iLLUSiON,ViSiON,DTRG SAFCuk009,LU,TheFalcon007,MYSTiC,PrisM,Noir,WBZ,LAP,Rx,Kingdom,SAFCuk009+Fabreezy,HDLiTE,TWiZTED,ExtraTorrentRG.ELEKTRI4KA,MAGNAT,CM8
 And to all the other p2p grps past and present



==================================  
http://thepiratebay.org/user/hiest
==================================



Screenshots:
 
http://www.pix2links.com/images/93856969560990343324.png
 
http://www.pix2links.com/images/01666279050666146781.png
 
http://www.pix2links.com/images/22907632642703659649.png
 
http://www.pix2links.com/images/66621265579317649492.png
 
http://www.pix2links.com/images/11638090636125113271.png
 
http://www.pix2links.com/images/57618965704543825391.png